<?xml version="1.0" encoding="UTF-8"?>
<!DOCTYPE svg PUBLIC "-//W3C//DTD SVG 1.1//EN" "http://www.w3.org/Graphics/SVG/1.1/DTD/svg11.dtd">
<svg xmlns="http://www.w3.org/2000/svg" version="1.1" width="149px" height="144px" style="shape-rendering:geometricPrecision; text-rendering:geometricPrecision; image-rendering:optimizeQuality; fill-rule:evenodd; clip-rule:evenodd" xmlns:xlink="http://www.w3.org/1999/xlink">
<g><path style="opacity:1" fill="#fafcfc" d="M -0.5,-0.5 C 49.1667,-0.5 98.8333,-0.5 148.5,-0.5C 148.5,47.5 148.5,95.5 148.5,143.5C 98.8333,143.5 49.1667,143.5 -0.5,143.5C -0.5,95.5 -0.5,47.5 -0.5,-0.5 Z"/></g>
<g><path style="opacity:1" fill="#7f88b5" d="M 89.5,20.5 C 89.5,16.8333 89.5,13.1667 89.5,9.5C 88.0695,9.57918 86.7362,9.24585 85.5,8.5C 84.8281,9.94916 84.1614,11.2825 83.5,12.5C 83.5,10.5 83.5,8.5 83.5,6.5C 87.4859,6.35229 90.1526,8.01896 91.5,11.5C 91.1402,14.7021 90.4735,17.7021 89.5,20.5 Z"/></g>
<g><path style="opacity:1" fill="#7b84b2" d="M 100.5,11.5 C 102.994,13.0091 103.994,15.3424 103.5,18.5C 103.45,22.0863 102.783,25.4196 101.5,28.5C 101.838,23.8141 102.005,19.1475 102,14.5C 100.139,13.1271 98.3055,12.7938 96.5,13.5C 96.281,12.325 96.6143,11.325 97.5,10.5C 98.4168,11.1272 99.4168,11.4606 100.5,11.5 Z"/></g>
<g><path style="opacity:1" fill="#578bcd" d="M 75.5,25.5 C 74.8423,26.3984 74.1757,27.3984 73.5,28.5C 72.2742,26.7221 70.6075,25.7221 68.5,25.5C 63.5217,20.187 58.5217,14.8537 53.5,9.5C 55.3488,7.82578 57.5155,6.82578 60,6.5C 65.5983,11.0944 70.9316,16.0944 76,21.5C 76.765,23.0657 76.5983,24.3991 75.5,25.5 Z"/></g>
<g><path style="opacity:1" fill="#568bcd" d="M 65.5,30.5 C 66.3891,32.736 67.7224,34.736 69.5,36.5C 69.2907,37.086 68.9574,37.586 68.5,38C 69.6241,38.8388 70.2908,40.0055 70.5,41.5C 70.3601,43.0296 69.6935,44.0296 68.5,44.5C 58.4048,34.744 49.0715,24.4107 40.5,13.5C 42.8398,12.914 45.0065,11.914 47,10.5C 53.7402,16.7361 59.9068,23.4028 65.5,30.5 Z"/></g>
<g><path style="opacity:1" fill="#f2f9fd" d="M 40.5,13.5 C 49.0715,24.4107 58.4048,34.744 68.5,44.5C 69.5846,46.5869 71.2512,47.9202 73.5,48.5C 71.623,49.6246 69.7897,49.2912 68,47.5C 67.805,48.8193 67.9717,50.1526 68.5,51.5C 60.8604,43.1937 52.8604,35.1937 44.5,27.5C 41.4534,24.4552 38.7867,21.1219 36.5,17.5C 37.5,17.5 38.5,17.5 39.5,17.5C 39.2322,15.901 39.5655,14.5676 40.5,13.5 Z"/></g>
<g><path style="opacity:1" fill="#737fb2" d="M 112.5,19.5 C 114.959,20.8738 115.959,23.0405 115.5,26C 114.967,30.8299 114.467,35.6632 114,40.5C 113.579,43.0199 112.412,45.0199 110.5,46.5C 108.956,46.7031 107.622,47.3698 106.5,48.5C 105.194,45.0202 105.194,41.6868 106.5,38.5C 106.5,40.5 106.5,42.5 106.5,44.5C 109.588,44.8034 111.254,43.4701 111.5,40.5C 108.664,40.7978 108.164,40.1311 110,38.5C 111.558,39.3452 112.558,38.6785 113,36.5C 113.74,30.7821 113.573,25.1154 112.5,19.5 Z"/></g>
<g><path style="opacity:1" fill="#6978b8" d="M 101.5,28.5 C 101.5,28.8333 101.5,29.1667 101.5,29.5C 99.6472,37.2656 98.3138,45.2656 97.5,53.5C 97.1667,53.5 96.8333,53.5 96.5,53.5C 95.5,53.5 94.5,53.5 93.5,53.5C 93.0775,49.2879 93.7442,45.2879 95.5,41.5C 94.8982,39.3921 94.5649,37.2254 94.5,35C 95.4942,28.8644 96.1608,22.6978 96.5,16.5C 96.5,15.5 96.5,14.5 96.5,13.5C 98.3055,12.7938 100.139,13.1271 102,14.5C 102.005,19.1475 101.838,23.8141 101.5,28.5 Z"/></g>
<g><path style="opacity:1" fill="#6c78b8" d="M 112.5,19.5 C 113.573,25.1154 113.74,30.7821 113,36.5C 112.558,38.6785 111.558,39.3452 110,38.5C 108.164,40.1311 108.664,40.7978 111.5,40.5C 111.254,43.4701 109.588,44.8034 106.5,44.5C 106.5,42.5 106.5,40.5 106.5,38.5C 107.26,32.5112 107.927,26.5112 108.5,20.5C 108.869,16.9868 110.202,16.6535 112.5,19.5 Z"/></g>
<g><path style="opacity:1" fill="#6e91c1" d="M 68.5,25.5 C 70.6075,25.7221 72.2742,26.7221 73.5,28.5C 74.1757,27.3984 74.8423,26.3984 75.5,25.5C 75.6633,27.8568 75.4966,30.1902 75,32.5C 72.6278,30.2968 70.4611,27.9635 68.5,25.5 Z"/></g>
<g><path style="opacity:1" fill="#6a78b7" d="M 89.5,20.5 C 89.4135,24.8566 89.0802,29.19 88.5,33.5C 87.5176,37.3164 86.8509,41.3164 86.5,45.5C 86.5,46.8333 86.5,48.1667 86.5,49.5C 85.5,53.5 84.5,57.5 83.5,61.5C 82.1667,61.5 80.8333,61.5 79.5,61.5C 79.3796,59.8014 79.0463,58.1347 78.5,56.5C 78.9186,55.3279 79.5853,54.3279 80.5,53.5C 79.4798,51.5675 79.3131,49.5675 80,47.5C 80.7431,49.6447 81.5765,49.8114 82.5,48C 80.8994,42.1552 81.2327,36.4886 83.5,31C 82.9166,24.9171 82.9166,18.7504 83.5,12.5C 84.1614,11.2825 84.8281,9.94916 85.5,8.5C 86.7362,9.24585 88.0695,9.57918 89.5,9.5C 89.5,13.1667 89.5,16.8333 89.5,20.5 Z"/></g>
<g><path style="opacity:1" fill="#ceeee9" d="M 37.5,38.5 C 31.4638,38.3599 25.4638,38.6932 19.5,39.5C 19.6107,38.8826 19.944,38.3826 20.5,38C 26.3487,37.1816 32.0154,37.3483 37.5,38.5 Z"/></g>
<g><path style="opacity:1" fill="#578bcc" d="M 36.5,17.5 C 38.7867,21.1219 41.4534,24.4552 44.5,27.5C 52.8604,35.1937 60.8604,43.1937 68.5,51.5C 69.5,52.8333 70.5,54.1667 71.5,55.5C 71.8412,59.1595 71.1745,62.4928 69.5,65.5C 63.5357,57.8681 56.869,50.8681 49.5,44.5C 43.0636,36.891 36.3969,29.391 29.5,22C 31.2115,19.4807 33.5448,17.9807 36.5,17.5 Z"/></g>
<g><path style="opacity:1" fill="#4d8ad2" d="M 44.5,27.5 C 44.8588,29.371 45.8588,30.871 47.5,32C 46.6667,33.5 45.5,34.6667 44,35.5C 42.4361,33.7369 41.2694,31.7369 40.5,29.5C 39.7261,28.2888 38.8928,28.2888 38,29.5C 35.9028,27.195 36.4028,25.5284 39.5,24.5C 40.6951,26.297 42.3618,27.297 44.5,27.5 Z"/></g>
<g><path style="opacity:1" fill="#349986" d="M 37.5,38.5 C 39.5,40.8333 41.5,43.1667 43.5,45.5C 34.6348,45.6886 25.8014,46.3552 17,47.5C 14.9674,47.4944 13.134,47.1611 11.5,46.5C 12.4867,44.5266 13.4867,42.5266 14.5,40.5C 16.0453,39.5481 17.712,39.2148 19.5,39.5C 25.4638,38.6932 31.4638,38.3599 37.5,38.5 Z"/></g>
<g><path style="opacity:1" fill="#dee2f4" d="M 88.5,33.5 C 88.665,36.8499 88.4983,40.1832 88,43.5C 87.7216,44.4158 87.2216,45.0825 86.5,45.5C 86.8509,41.3164 87.5176,37.3164 88.5,33.5 Z"/></g>
<g><path style="opacity:1" fill="#6892cb" d="M 65.5,30.5 C 68.4639,32.9619 71.2972,35.6286 74,38.5C 73.9545,41.8004 73.7878,45.1337 73.5,48.5C 71.2512,47.9202 69.5846,46.5869 68.5,44.5C 69.6935,44.0296 70.3601,43.0296 70.5,41.5C 70.2908,40.0055 69.6241,38.8388 68.5,38C 68.9574,37.586 69.2907,37.086 69.5,36.5C 67.7224,34.736 66.3891,32.736 65.5,30.5 Z"/></g>
<g><path style="opacity:1" fill="#7782b1" d="M 101.5,29.5 C 100.75,37.1681 99.9166,44.8347 99,52.5C 98.6174,53.056 98.1174,53.3893 97.5,53.5C 98.3138,45.2656 99.6472,37.2656 101.5,29.5 Z"/></g>
<g><path style="opacity:1" fill="#747fb3" d="M 83.5,12.5 C 82.9166,18.7504 82.9166,24.9171 83.5,31C 81.2327,36.4886 80.8994,42.1552 82.5,48C 81.5765,49.8114 80.7431,49.6447 80,47.5C 79.3131,49.5675 79.4798,51.5675 80.5,53.5C 79.5853,54.3279 78.9186,55.3279 78.5,56.5C 79.0463,58.1347 79.3796,59.8014 79.5,61.5C 80.8333,61.5 82.1667,61.5 83.5,61.5C 81.8132,63.1662 79.8132,64.4995 77.5,65.5C 77.1667,64 76.8333,62.5 76.5,61C 77.0898,56.8111 77.7564,52.6445 78.5,48.5C 80.1748,36.3684 81.8414,24.3684 83.5,12.5 Z"/></g>
<g><path style="opacity:1" fill="#7b85b6" d="M 96.5,16.5 C 96.1608,22.6978 95.4942,28.8644 94.5,35C 94.5649,37.2254 94.8982,39.3921 95.5,41.5C 93.7442,45.2879 93.0775,49.2879 93.5,53.5C 94.5,53.5 95.5,53.5 96.5,53.5C 95.0858,55.0542 93.4192,56.3875 91.5,57.5C 91.1667,56.3333 90.8333,55.1667 90.5,54C 91.2499,50.1703 91.9166,46.337 92.5,42.5C 93.0515,33.5828 94.3849,24.9161 96.5,16.5 Z"/></g>
<g><path style="opacity:1" fill="#329a86" d="M 7.5,61.5 C 7.5,60.8333 7.5,60.1667 7.5,59.5C 8.22398,57.7816 8.89064,55.9483 9.5,54C 22.7785,52.0957 36.1118,51.0957 49.5,51C 51.4049,52.8153 53.0716,54.8153 54.5,57C 38.8223,58.4707 23.1556,59.9707 7.5,61.5 Z"/></g>
<g><path style="opacity:1" fill="#e8f9f8" d="M 49.5,44.5 C 56.869,50.8681 63.5357,57.8681 69.5,65.5C 68.0998,66.1001 67.0998,67.1001 66.5,68.5C 64.3702,66.8729 62.3702,65.0396 60.5,63C 59,62.8333 57.5,62.6667 56,62.5C 42.8705,64.0631 29.7039,65.0631 16.5,65.5C 13.7131,66.4767 10.7131,66.81 7.5,66.5C 9.04192,65.8365 10.7086,65.1698 12.5,64.5C 10.6404,63.6751 8.97376,62.6751 7.5,61.5C 23.1556,59.9707 38.8223,58.4707 54.5,57C 53.0716,54.8153 51.4049,52.8153 49.5,51C 36.1118,51.0957 22.7785,52.0957 9.5,54C 8.89064,55.9483 8.22398,57.7816 7.5,59.5C 7.5,56.8333 7.5,54.1667 7.5,51.5C 13.6208,51.9101 19.6208,51.4101 25.5,50C 20.5111,49.5007 15.5111,49.3341 10.5,49.5C 10.2627,48.209 10.596,47.209 11.5,46.5C 13.134,47.1611 14.9674,47.4944 17,47.5C 25.8014,46.3552 34.6348,45.6886 43.5,45.5C 43.0825,46.2216 42.4158,46.7216 41.5,47C 37.0492,47.1298 32.7159,47.7964 28.5,49C 34.1667,49.6667 39.8333,49.6667 45.5,49C 48.0724,48.5685 49.4057,47.0685 49.5,44.5 Z"/></g>
<g><path style="opacity:1" fill="#359b87" d="M 133.5,63.5 C 123.811,68.3473 114.477,73.8473 105.5,80C 101.772,80.4248 98.4384,79.4248 95.5,77C 105.898,70.4752 116.231,63.9752 126.5,57.5C 129.553,56.2231 132.386,54.5564 135,52.5C 135.986,54.7778 136.82,57.1111 137.5,59.5C 136.133,60.84 134.8,62.1733 133.5,63.5 Z"/></g>
<g><path style="opacity:1" fill="#fbfdfd" d="M 16.5,65.5 C 13.1742,65.0328 12.8409,63.8661 15.5,62C 25.8761,61.6153 36.2095,60.7819 46.5,59.5C 49.6911,59.3782 52.6911,59.8782 55.5,61C 42.3274,62.2484 29.3274,63.7484 16.5,65.5 Z"/></g>
<g><path style="opacity:1" fill="#f3f9fb" d="M 108.5,20.5 C 107.927,26.5112 107.26,32.5112 106.5,38.5C 105.194,41.6868 105.194,45.0202 106.5,48.5C 107.622,47.3698 108.956,46.7031 110.5,46.5C 110.281,47.675 110.614,48.675 111.5,49.5C 113.179,47.8955 115.179,47.2289 117.5,47.5C 107.867,53.9885 97.8672,59.9885 87.5,65.5C 84.0319,66.1516 80.8653,67.485 78,69.5C 77.4604,71.1346 77.9604,72.4679 79.5,73.5C 78.8728,74.4168 78.5394,75.4168 78.5,76.5C 77.9217,79.6836 78.5883,82.8503 80.5,86C 95.8333,92 111.167,98 126.5,104C 127.928,104.579 129.262,104.412 130.5,103.5C 130.611,104.117 130.944,104.617 131.5,105C 129.231,105.758 127.064,105.591 125,104.5C 124.51,105.793 124.343,107.127 124.5,108.5C 110.561,103.464 96.7275,98.131 83,92.5C 82.9957,95.8312 83.829,98.9978 85.5,102C 93.3881,104.9 101.055,108.066 108.5,111.5C 107.022,111.238 105.689,111.571 104.5,112.5C 107.068,114.717 110.068,115.884 113.5,116C 113.167,116.333 112.833,116.667 112.5,117C 114.32,117.2 115.653,118.034 116.5,119.5C 106.889,116.13 97.3892,112.463 88,108.5C 88.4948,111.853 89.3281,115.187 90.5,118.5C 89.0222,118.238 87.6888,118.571 86.5,119.5C 87.3482,121.409 87.6816,123.409 87.5,125.5C 82.2006,109.937 76.8673,94.2706 71.5,78.5C 70.0569,81.0765 68.3902,83.4099 66.5,85.5C 65.3871,86.9464 65.2204,88.6131 66,90.5C 67.1667,93.8333 68.3333,97.1667 69.5,100.5C 69.4435,101.737 68.9435,102.737 68,103.5C 67.1016,100.931 65.935,98.5976 64.5,96.5C 63.7677,95.1917 62.9344,93.8584 62,92.5C 60.2765,94.7167 58.7765,97.05 57.5,99.5C 56.0918,101.969 54.4251,104.303 52.5,106.5C 51.1891,109.135 49.5224,111.469 47.5,113.5C 46.1196,114.706 44.9529,114.373 44,112.5C 43.6667,113.833 43.3333,115.167 43,116.5C 42.7216,115.584 42.2216,114.918 41.5,114.5C 41.8333,113.833 42.1667,113.167 42.5,112.5C 42.8333,111.833 43.1667,111.167 43.5,110.5C 51.2673,99.1515 58.934,87.6515 66.5,76C 63.0764,75.2534 59.7431,75.42 56.5,76.5C 57.1047,74.9743 58.2714,73.9743 60,73.5C 61.6995,74.4061 63.5328,74.7394 65.5,74.5C 65.5,73.5 65.5,72.5 65.5,71.5C 59.121,71.812 52.7877,72.4786 46.5,73.5C 46.5,72.8333 46.5,72.1667 46.5,71.5C 53.5003,71.206 60.167,70.206 66.5,68.5C 67.0998,67.1001 68.0998,66.1001 69.5,65.5C 71.1745,62.4928 71.8412,59.1595 71.5,55.5C 72.3171,57.9686 72.8171,60.6353 73,63.5C 72.9539,60.3669 73.9539,57.7002 76,55.5C 76.7581,53.2305 76.5914,51.0639 75.5,49C 76.448,48.5172 77.448,48.3505 78.5,48.5C 77.7564,52.6445 77.0898,56.8111 76.5,61C 76.8333,62.5 77.1667,64 77.5,65.5C 79.8132,64.4995 81.8132,63.1662 83.5,61.5C 84.5,57.5 85.5,53.5 86.5,49.5C 86.5,50.5 86.5,51.5 86.5,52.5C 87.552,52.6495 88.552,52.4828 89.5,52C 89.5,50 89.5,48 89.5,46C 90.8141,45.015 91.8141,43.8484 92.5,42.5C 91.9166,46.337 91.2499,50.1703 90.5,54C 90.8333,55.1667 91.1667,56.3333 91.5,57.5C 93.4192,56.3875 95.0858,55.0542 96.5,53.5C 96.8333,53.5 97.1667,53.5 97.5,53.5C 98.1174,53.3893 98.6174,53.056 99,52.5C 99.9166,44.8347 100.75,37.1681 101.5,29.5C 101.5,29.1667 101.5,28.8333 101.5,28.5C 102.783,25.4196 103.45,22.0863 103.5,18.5C 103.994,15.3424 102.994,13.0091 100.5,11.5C 101.822,11.67 102.989,11.3366 104,10.5C 104.826,13.7928 105.326,17.1262 105.5,20.5C 106.5,20.5 107.5,20.5 108.5,20.5 Z"/></g>
<g><path style="opacity:1" fill="#349b87" d="M 66.5,68.5 C 60.167,70.206 53.5003,71.206 46.5,71.5C 39.3165,71.7678 32.3165,72.4345 25.5,73.5C 24.5,73.5 23.5,73.5 22.5,73.5C 17.1667,73.8333 11.8333,74.1667 6.5,74.5C 6.5,72.1667 6.5,69.8333 6.5,67.5C 6.5,66.8333 6.83333,66.5 7.5,66.5C 10.7131,66.81 13.7131,66.4767 16.5,65.5C 29.7039,65.0631 42.8705,64.0631 56,62.5C 57.5,62.6667 59,62.8333 60.5,63C 62.3702,65.0396 64.3702,66.8729 66.5,68.5 Z"/></g>
<g><path style="opacity:1" fill="#339a86" d="M 122.5,54.5 C 111.226,60.473 100.226,66.973 89.5,74C 85.8567,74.1863 82.5233,73.1863 79.5,71C 82.4068,69.3909 85.0734,67.5576 87.5,65.5C 97.8672,59.9885 107.867,53.9885 117.5,47.5C 121.801,45.683 125.801,43.3497 129.5,40.5C 131.763,42.3586 132.929,44.6919 133,47.5C 129.349,49.7327 125.849,52.066 122.5,54.5 Z"/></g>
<g><path style="opacity:1" fill="#d9f6f1" d="M 46.5,71.5 C 46.5,72.1667 46.5,72.8333 46.5,73.5C 39.5,73.5 32.5,73.5 25.5,73.5C 32.3165,72.4345 39.3165,71.7678 46.5,71.5 Z"/></g>
<g><path style="opacity:1" fill="#d9f6f3" d="M 6.5,67.5 C 6.5,69.8333 6.5,72.1667 6.5,74.5C 11.8333,74.1667 17.1667,73.8333 22.5,73.5C 21.3915,74.29 20.0581,74.79 18.5,75C 14.1794,75.499 9.84611,75.6657 5.5,75.5C 5.1936,72.6146 5.52693,69.9479 6.5,67.5 Z"/></g>
<g><path style="opacity:1" fill="#9ba4c8" d="M 40.5,77.5 C 43.8333,76.1667 47.1667,76.1667 50.5,77.5C 49.8333,77.8333 49.1667,78.1667 48.5,78.5C 46.0521,77.5269 43.3854,77.1936 40.5,77.5 Z"/></g>
<g><path style="opacity:1" fill="#f0fbfb" d="M 122.5,54.5 C 121.133,56.1417 120.799,57.8084 121.5,59.5C 122.842,57.9951 124.508,57.3285 126.5,57.5C 116.231,63.9752 105.898,70.4752 95.5,77C 98.4384,79.4248 101.772,80.4248 105.5,80C 114.477,73.8473 123.811,68.3473 133.5,63.5C 133.489,65.0174 132.823,66.1841 131.5,67C 133.283,67.2323 134.95,66.7323 136.5,65.5C 137.416,65.5427 138.083,65.8761 138.5,66.5C 129.057,71.7249 119.724,77.2249 110.5,83C 114.11,85.9861 118.11,86.8195 122.5,85.5C 122.5,86.8333 122.5,88.1667 122.5,89.5C 120.43,89.5514 118.597,88.8847 117,87.5C 116.5,87.8333 116,88.1667 115.5,88.5C 116.127,89.4168 116.461,90.4168 116.5,91.5C 112.562,89.9651 108.562,88.6318 104.5,87.5C 95.8333,83.8333 87.1667,80.1667 78.5,76.5C 78.5394,75.4168 78.8728,74.4168 79.5,73.5C 77.9604,72.4679 77.4604,71.1346 78,69.5C 80.8653,67.485 84.0319,66.1516 87.5,65.5C 85.0734,67.5576 82.4068,69.3909 79.5,71C 82.5233,73.1863 85.8567,74.1863 89.5,74C 100.226,66.973 111.226,60.473 122.5,54.5 Z"/></g>
<g><path style="opacity:1" fill="#3a9b88" d="M 138.5,66.5 C 138.665,69.5184 138.498,72.5184 138,75.5C 132.513,78.4837 127.347,81.817 122.5,85.5C 118.11,86.8195 114.11,85.9861 110.5,83C 119.724,77.2249 129.057,71.7249 138.5,66.5 Z"/></g>
<g><path style="opacity:1" fill="#6a77bb" d="M 55.5,78.5 C 57.8273,78.2471 59.8273,78.9137 61.5,80.5C 60.1006,82.6048 58.4339,84.4381 56.5,86C 56.8333,86.3333 57.1667,86.6667 57.5,87C 56.552,87.4828 55.552,87.6495 54.5,87.5C 54.7725,89.9582 53.7725,91.6249 51.5,92.5C 50.3691,90.9255 50.2025,89.2588 51,87.5C 54.3985,86.0408 55.5652,83.7075 54.5,80.5C 54.8333,79.8333 55.1667,79.1667 55.5,78.5 Z"/></g>
<g><path style="opacity:1" fill="#5c8cca" d="M 78.5,76.5 C 87.1667,80.1667 95.8333,83.8333 104.5,87.5C 108.562,88.6318 112.562,89.9651 116.5,91.5C 122.202,93.3387 127.536,95.8387 132.5,99C 131.586,100.406 130.92,101.906 130.5,103.5C 129.262,104.412 127.928,104.579 126.5,104C 111.167,98 95.8333,92 80.5,86C 78.5883,82.8503 77.9217,79.6836 78.5,76.5 Z"/></g>
<g><path style="opacity:1" fill="#f4f6fc" d="M 50.5,77.5 C 49.7878,79.9279 48.7878,82.2612 47.5,84.5C 47.6667,84.8333 47.8333,85.1667 48,85.5C 48.9147,84.6721 49.5814,83.6721 50,82.5C 50.3826,83.056 50.8826,83.3893 51.5,83.5C 48.7629,88.638 45.7629,93.638 42.5,98.5C 40.9172,100.663 39.5839,102.996 38.5,105.5C 35.1667,109.833 31.8333,114.167 28.5,118.5C 28.5,117.5 28.5,116.5 28.5,115.5C 27.5,115.5 26.5,115.5 25.5,115.5C 33.4171,103.335 41.0838,91.0012 48.5,78.5C 49.1667,78.1667 49.8333,77.8333 50.5,77.5 Z"/></g>
<g><path style="opacity:1" fill="#6e7ab6" d="M 23.5,78.5 C 26.5719,78.1826 29.5719,78.5159 32.5,79.5C 27.1964,87.9689 21.6964,96.3022 16,104.5C 13.5407,101.93 12.5407,98.9301 13,95.5C 16.725,89.9483 20.225,84.2816 23.5,78.5 Z"/></g>
<g><path style="opacity:1" fill="#4e89d2" d="M 104.5,87.5 C 104.389,88.1174 104.056,88.6174 103.5,89C 105.167,89.3333 106.833,89.6667 108.5,90C 106.519,90.6054 106.185,91.6054 107.5,93C 105.833,93.6667 104.167,93.6667 102.5,93C 97.4795,90.1575 92.1462,87.9908 86.5,86.5C 85.6143,85.675 85.281,84.675 85.5,83.5C 91.7675,84.8283 98.1008,86.1616 104.5,87.5 Z"/></g>
<g><path style="opacity:1" fill="#707db4" d="M 43.5,110.5 C 43.2978,108.011 43.7978,105.677 45,103.5C 47.2269,101.081 49.3936,98.5812 51.5,96C 47.6921,92.1134 46.0254,92.9467 46.5,98.5C 45.1667,98.5 43.8333,98.5 42.5,98.5C 45.7629,93.638 48.7629,88.638 51.5,83.5C 52.7281,82.6935 53.7281,81.6935 54.5,80.5C 55.5652,83.7075 54.3985,86.0408 51,87.5C 50.2025,89.2588 50.3691,90.9255 51.5,92.5C 53.7725,91.6249 54.7725,89.9582 54.5,87.5C 55.552,87.6495 56.552,87.4828 57.5,87C 57.1667,86.6667 56.8333,86.3333 56.5,86C 58.4339,84.4381 60.1006,82.6048 61.5,80.5C 59.8273,78.9137 57.8273,78.2471 55.5,78.5C 55.8333,77.8333 56.1667,77.1667 56.5,76.5C 59.7431,75.42 63.0764,75.2534 66.5,76C 58.934,87.6515 51.2673,99.1515 43.5,110.5 Z"/></g>
<g><path style="opacity:1" fill="#6e7ab6" d="M 40.5,77.5 C 43.3854,77.1936 46.0521,77.5269 48.5,78.5C 41.0838,91.0012 33.4171,103.335 25.5,115.5C 24.1196,116.706 22.9529,116.373 22,114.5C 20.2491,112.788 19.5825,110.788 20,108.5C 26.8436,98.1381 33.677,87.8048 40.5,77.5 Z"/></g>
<g><path style="opacity:1" fill="#4d89d2" d="M 110.5,91.5 C 115.014,92.4208 119.347,93.9208 123.5,96C 117.985,98.3015 112.652,97.9681 107.5,95C 108.71,93.9609 109.71,92.7942 110.5,91.5 Z"/></g>
<g><path style="opacity:1" fill="#319a86" d="M 87.5,125.5 C 87.9555,128.203 88.6221,130.87 89.5,133.5C 87.8863,136.427 85.553,137.094 82.5,135.5C 79.6702,127.003 76.6702,118.67 73.5,110.5C 71.3695,102.109 69.0362,93.7754 66.5,85.5C 68.3902,83.4099 70.0569,81.0765 71.5,78.5C 76.8673,94.2706 82.2006,109.937 87.5,125.5 Z"/></g>
<g><path style="opacity:1" fill="#359a87" d="M 64.5,96.5 C 65.5946,101.784 67.2613,106.784 69.5,111.5C 71.8358,120.173 74.1691,128.839 76.5,137.5C 73.8333,137.5 71.1667,137.5 68.5,137.5C 68.233,135.035 67.5664,132.701 66.5,130.5C 63.2908,120.208 60.2908,109.875 57.5,99.5C 58.7765,97.05 60.2765,94.7167 62,92.5C 62.9344,93.8584 63.7677,95.1917 64.5,96.5 Z"/></g>
<g><path style="opacity:1" fill="#e3faf7" d="M 66.5,85.5 C 69.0362,93.7754 71.3695,102.109 73.5,110.5C 72.0688,109.097 70.9022,107.431 70,105.5C 69.5045,107.473 69.3379,109.473 69.5,111.5C 67.2613,106.784 65.5946,101.784 64.5,96.5C 65.935,98.5976 67.1016,100.931 68,103.5C 68.9435,102.737 69.4435,101.737 69.5,100.5C 68.3333,97.1667 67.1667,93.8333 66,90.5C 65.2204,88.6131 65.3871,86.9464 66.5,85.5 Z"/></g>
<g><path style="opacity:1" fill="#6a78b9" d="M 43.5,110.5 C 43.1667,111.167 42.8333,111.833 42.5,112.5C 41.4168,112.539 40.4168,112.873 39.5,113.5C 38.9041,112.284 38.7374,110.951 39,109.5C 38.2825,110.451 37.4491,110.617 36.5,110C 37.5822,108.67 38.2488,107.17 38.5,105.5C 39.5839,102.996 40.9172,100.663 42.5,98.5C 43.8333,98.5 45.1667,98.5 46.5,98.5C 46.0254,92.9467 47.6921,92.1134 51.5,96C 49.3936,98.5812 47.2269,101.081 45,103.5C 43.7978,105.677 43.2978,108.011 43.5,110.5 Z"/></g>
<g><path style="opacity:1" fill="#578bcd" d="M 124.5,108.5 C 126.028,108.517 126.528,109.184 126,110.5C 124.578,112.744 122.744,114.41 120.5,115.5C 116.556,113.963 112.556,112.63 108.5,111.5C 101.055,108.066 93.3881,104.9 85.5,102C 83.829,98.9978 82.9957,95.8312 83,92.5C 96.7275,98.131 110.561,103.464 124.5,108.5 Z"/></g>
<g><path style="opacity:1" fill="#707cb6" d="M 38.5,105.5 C 38.2488,107.17 37.5822,108.67 36.5,110C 37.4491,110.617 38.2825,110.451 39,109.5C 38.7374,110.951 38.9041,112.284 39.5,113.5C 40.4168,112.873 41.4168,112.539 42.5,112.5C 42.1667,113.167 41.8333,113.833 41.5,114.5C 38.863,117.989 36.363,121.655 34,125.5C 30.805,124.149 28.9717,121.815 28.5,118.5C 31.8333,114.167 35.1667,109.833 38.5,105.5 Z"/></g>
<g><path style="opacity:1" fill="#598ccc" d="M 116.5,119.5 C 116.938,119.435 117.272,119.601 117.5,120C 115.315,122.588 112.648,124.421 109.5,125.5C 103.072,123.358 96.7383,121.025 90.5,118.5C 89.3281,115.187 88.4948,111.853 88,108.5C 97.3892,112.463 106.889,116.13 116.5,119.5 Z"/></g>
<g><path style="opacity:1" fill="#359a86" d="M 52.5,106.5 C 56.7917,116.042 60.125,126.042 62.5,136.5C 61.5,136.5 60.5,136.5 59.5,136.5C 57.8561,136.714 56.3561,136.38 55,135.5C 52.1962,128.255 49.6962,120.922 47.5,113.5C 49.5224,111.469 51.1891,109.135 52.5,106.5 Z"/></g>
<g><path style="opacity:1" fill="#e5f9f7" d="M 57.5,99.5 C 60.2908,109.875 63.2908,120.208 66.5,130.5C 65.1656,128.534 63.8322,126.534 62.5,124.5C 62.1667,125.167 61.8333,125.833 61.5,126.5C 62.8716,129.332 63.8716,132.332 64.5,135.5C 63.0866,137.607 61.4199,137.94 59.5,136.5C 60.5,136.5 61.5,136.5 62.5,136.5C 60.125,126.042 56.7917,116.042 52.5,106.5C 54.4251,104.303 56.0918,101.969 57.5,99.5 Z"/></g>
</svg>
